

<svg
  
   version="1.1"
   id="svg2"
   xml:space="preserve"
   width="599.414"
   height="292.33801"
   viewBox="0 0 599.414 292.33801"
   sodipodi:docname="Colegues.ai.svg"
   version="1.1.2 (1:1.1+202202050950+0a00cf5339)"
   ><defs
     id="defs6"><clipPath
       clipPathUnits="userSpaceOnUse"
       id="clipPath18"><path
         d="M 0,500 H 500 V 0 H 0 Z"
         id="path16" /></clipPath><clipPath
       clipPathUnits="userSpaceOnUse"
       id="clipPath986"><path
         d="M 0,500 H 500 V 0 H 0 Z"
         id="path984" /></clipPath></defs><sodipodi:namedview
     id="namedview4"
     pagecolor="#ffffff"
     bordercolor="#999999"
     borderopacity="1"
     pageshadow="0"
     pageopacity="0"
     pagecheckerboard="0"
     showgrid="false"
     zoom="0.59821232"
     cx="205.61262"
     cy="212.29921"
     window-width="1366"
     window-height="713"
     window-x="0"
     window-y="25"
     window-maximized="1"
     current-layer="g8" /><g
     id="g8"
     groupmode="layer"
     label="2650147"
     transform="matrix(1.3333333,0,0,-1.3333333,0,666.66667)"><g
       id="g1173"
       transform="translate(-24.973006,126.94469)"
       export-filename="/home/junior/Documentos/g1173.png"
       export-xdpi="300"
       export-ydpi="300"><g
         id="g2182"
         transform="matrix(0.02873738,0,0,0.02873738,2.7347407,109.17568)"><path
           d="m 1869.04,1584.12 c 0.7,-0.54 13648.96,1.68 13648.96,1.68 449.3,958.43 448.6,1426.71 499.7,1976.07 C 16300,6598.28 14013,7065.1 13343,7191.71 11291.6,7579.4 12225.2,9497.61 6879.46,9137.72 6389.47,9104.74 5234.26,8838.43 4836.13,8665.91 4556.89,8545 3504.82,8003.98 3196.15,7088.78 3098.65,6799.93 3075.27,6473.83 3173.56,6111.87 3521.47,4831.06 2614.45,4904.68 1951.67,4294.31 1067.06,3479.76 1159.53,2147.56 1869.04,1584.12"
           style="fill:#ebf3fa;fill-opacity:1;fill-rule:nonzero;stroke:none"
           id="path2184" /></g><g
         id="g2186"
         transform="matrix(0.01766678,0,0,0.01766678,2.7347407,109.17568)"><path
           d="m 16264.6,2578.09 h 3 c 18,0 32.4,14.79 32,32.76 l -48.5,2099.1 -142.6,16.64 121.7,-2115.92 c 1,-18.31 16.1,-32.58 34.4,-32.58"
           style="fill:#b0d4ff;fill-opacity:1;fill-rule:nonzero;stroke:none"
           id="path2188" /></g><g
         id="g2190"
         transform="matrix(0.01856792,0,0,0.01856792,2.7347407,109.17568)"><path
           d="m 16266.3,2452.98 h 2.9 c 17.1,0 30.8,14.07 30.4,31.16 l -46.1,1997.24 -135.7,15.83 115.7,-2013.23 c 1,-17.43 15.4,-31 32.8,-31"
           style="fill:#95c0f4;fill-opacity:1;fill-rule:nonzero;stroke:none"
           id="path2192" /></g><g
         id="g2194"
         transform="matrix(0.01621234,0,0,0.01621234,2.7347407,109.17568)"><path
           d="m 16129.8,2809.39 h -3.3 c -19.5,0 -35.2,16.12 -34.8,35.69 l 52.8,2287.42 155.5,18.14 -132.6,-2305.75 c -1.2,-19.96 -17.7,-35.5 -37.6,-35.5"
           style="fill:#b0d4ff;fill-opacity:1;fill-rule:nonzero;stroke:none"
           id="path2196" /></g><g
         id="g2198"
         transform="matrix(0.01863201,0,0,0.01863201,2.7347407,109.17568)"><path
           d="m 16300,4589.46 v 1363.87 c 0,240.03 -194.5,434.56 -434.5,434.56 h -982.7 c -240,0 -434.6,-194.53 -434.6,-434.56 V 4537.28 l 1851.8,52.18"
           style="fill:#b0d4ff;fill-opacity:1;fill-rule:nonzero;stroke:none"
           id="path2200" /></g><g
         id="g2202"
         transform="matrix(0.01863201,0,0,0.01863201,2.7347407,109.17568)"><path
           d="m 14272.2,4374.14 h 1897.4 c 72,0 130.4,58.36 130.4,130.41 v 84.91 h -2027.8 v -215.32"
           style="fill:#95c0f4;fill-opacity:1;fill-rule:nonzero;stroke:none"
           id="path2204" /></g><g
         id="g2206"
         transform="matrix(0.01780523,0,0,0.01780523,2.7347407,109.17568)"><path
           d="M 14696.9,4577.24 H 16199 c 55.8,0 101,45.17 101,100.91 v 23.41 c 0,55.74 -45.2,101 -101,101 h -1502.1 c -55.7,0 -100.9,-45.26 -100.9,-101 v -23.41 c 0,-55.74 45.2,-100.91 100.9,-100.91"
           style="fill:#cae5ff;fill-opacity:1;fill-rule:nonzero;stroke:none"
           id="path2208" /></g><g
         id="g2210"
         transform="matrix(0.01983492,0,0,0.01983492,2.7347407,109.17568)"><path
           d="M 16300,6460.65 H 10978.6 V 11054.3 H 16300 V 6460.65"
           style="fill:#95c0f4;fill-opacity:1;fill-rule:nonzero;stroke:none"
           id="path2212" /></g><g
         id="g2214"
         transform="matrix(0.01970908,0,0,0.01970908,2.7347407,109.17568)"><path
           d="M 16300,6594.13 H 11150.7 V 11047.9 H 16300 V 6594.13"
           style="fill:#dfedfb;fill-opacity:1;fill-rule:nonzero;stroke:none"
           id="path2216" /></g><g
         id="g2218"
         transform="matrix(0.01565887,0,0,0.01565887,2.7347407,109.17568)"><path
           d="m 16300,11466.4 h -1420.2 v 1773.4 l 240.8,217.1 H 16300 v -1990.5"
           style="fill:#ffffff;fill-opacity:1;fill-rule:nonzero;stroke:none"
           id="path2220" /></g><path
         d="m 235.73711,316.49734 h 3.64934 l 0.12133,3.39889 z"
         style="fill:#b0d4ff;fill-opacity:1;fill-rule:nonzero;stroke:none;stroke-width:0.0155556"
         id="path2222" /><path
         d="m 250.41691,316.85512 h -7.12135 v 0.33911 h 7.12135 v -0.33911"
         style="fill:#b0d4ff;fill-opacity:1;fill-rule:nonzero;stroke:none;stroke-width:0.0155556"
         id="path2224" /><path
         d="m 252.09224,315.83778 h -10.47201 v 0.33911 h 10.47201 v -0.33911"
         style="fill:#b0d4ff;fill-opacity:1;fill-rule:nonzero;stroke:none;stroke-width:0.0155556"
         id="path2226" /><path
         d="m 255.75869,309.20799 h -17.38958 v 0.43556 h 17.38958 v -0.43556"
         style="fill:#b0d4ff;fill-opacity:1;fill-rule:nonzero;stroke:none;stroke-width:0.0155556"
         id="path2228" /><path
         d="m 255.75869,307.88266 h -17.38958 v 0.43711 h 17.38958 v -0.43711"
         style="fill:#b0d4ff;fill-opacity:1;fill-rule:nonzero;stroke:none;stroke-width:0.0155556"
         id="path2230" /><path
         d="m 255.75869,306.55888 h -17.38958 v 0.43556 h 17.38958 v -0.43556"
         style="fill:#b0d4ff;fill-opacity:1;fill-rule:nonzero;stroke:none;stroke-width:0.0155556"
         id="path2232" /><path
         d="m 255.75869,305.2351 h -17.38958 v 0.43556 h 17.38958 v -0.43556"
         style="fill:#b0d4ff;fill-opacity:1;fill-rule:nonzero;stroke:none;stroke-width:0.0155556"
         id="path2234" /><path
         d="m 255.75869,291.06708 h -17.38958 v 0.43555 h 17.38958 v -0.43555"
         style="fill:#b0d4ff;fill-opacity:1;fill-rule:nonzero;stroke:none;stroke-width:0.0155556"
         id="path2236" /><g
         id="g2238"
         transform="matrix(0.01723434,0,0,0.01723434,2.7347407,109.17568)"><path
           d="m 16300,8182.72 h -1290.4 v 1611.32 l 218.8,197.23 H 16300 V 8182.72"
           style="fill:#ffffff;fill-opacity:1;fill-rule:nonzero;stroke:none"
           id="path2240" /></g><g
         id="g2242"
         transform="matrix(0.01610143,0,0,0.01610143,2.7347407,109.17568)"><path
           d="m 16065.7,10483.2 h 226.8 l 7.5,211.1 -234.3,-211.1"
           style="fill:#b0d4ff;fill-opacity:1;fill-rule:nonzero;stroke:none"
           id="path2244" /></g><g
         id="g2246"
         transform="matrix(0.01677047,0,0,0.01677047,2.7347407,109.17568)"><path
           d="m 16300,10086.2 h -424.5 v 20.2 h 424.5 v -20.2"
           style="fill:#b0d4ff;fill-opacity:1;fill-rule:nonzero;stroke:none"
           id="path2248" /></g><g
         id="g2250"
         transform="matrix(0.01687345,0,0,0.01687345,2.7347407,109.17568)"><path
           d="m 16300,9964.42 h -620.7 v 20.09 h 620.7 v -20.09"
           style="fill:#b0d4ff;fill-opacity:1;fill-rule:nonzero;stroke:none"
           id="path2252" /></g><g
         id="g2254"
         transform="matrix(0.01709838,0,0,0.01709838,2.7347407,109.17568)"><path
           d="m 16300,9445.56 h -1017 v 25.5 h 1017 v -25.5"
           style="fill:#b0d4ff;fill-opacity:1;fill-rule:nonzero;stroke:none"
           id="path2256" /></g><g
         id="g2258"
         transform="matrix(0.01709838,0,0,0.01709838,2.7347407,109.17568)"><path
           d="m 16300,9368.13 h -1017 v 25.5 h 1017 v -25.5"
           style="fill:#b0d4ff;fill-opacity:1;fill-rule:nonzero;stroke:none"
           id="path2260" /></g><g
         id="g2262"
         transform="matrix(0.01709838,0,0,0.01709838,2.7347407,109.17568)"><path
           d="m 16300,9290.69 h -1017 v 25.5 h 1017 v -25.5"
           style="fill:#b0d4ff;fill-opacity:1;fill-rule:nonzero;stroke:none"
           id="path2264" /></g><g
         id="g2266"
         transform="matrix(0.01709838,0,0,0.01709838,2.7347407,109.17568)"><path
           d="m 16300,9213.26 h -1017 v 25.49 h 1017 v -25.49"
           style="fill:#b0d4ff;fill-opacity:1;fill-rule:nonzero;stroke:none"
           id="path2268" /></g><g
         id="g2270"
         transform="matrix(0.01709838,0,0,0.01709838,2.7347407,109.17568)"><path
           d="m 16300,8974.98 h -1017 v 25.47 h 1017 v -25.47"
           style="fill:#b0d4ff;fill-opacity:1;fill-rule:nonzero;stroke:none"
           id="path2272" /></g><g
         id="g2274"
         transform="matrix(0.01709838,0,0,0.01709838,2.7347407,109.17568)"><path
           d="m 16300,8897.56 h -1017 v 25.47 h 1017 v -25.47"
           style="fill:#b0d4ff;fill-opacity:1;fill-rule:nonzero;stroke:none"
           id="path2276" /></g><g
         id="g2278"
         transform="matrix(0.01709838,0,0,0.01709838,2.7347407,109.17568)"><path
           d="m 16300,8807.76 h -1017 v 25.48 h 1017 v -25.48"
           style="fill:#b0d4ff;fill-opacity:1;fill-rule:nonzero;stroke:none"
           id="path2280" /></g><g
         id="g2282"
         transform="matrix(0.01800418,0,0,0.01800418,2.7347407,109.17568)"><path
           d="m 15618,11704 h 682 v -601.3 h -682 v 601.3"
           style="fill:#b0d4ff;fill-opacity:1;fill-rule:nonzero;stroke:none"
           id="path2284" /></g><g
         id="g2286"
         transform="matrix(0.01766056,0,0,0.01766056,2.7347407,109.17568)"><path
           d="m 16239.1,11858.8 c 0,16.8 13.6,30.4 30.4,30.4 16.8,0 30.5,-13.6 30.5,-30.4 0,-16.9 -13.7,-30.5 -30.5,-30.5 -16.8,0 -30.4,13.6 -30.4,30.5"
           style="fill:#ffa412;fill-opacity:1;fill-rule:nonzero;stroke:none"
           id="path2288" /></g><g
         id="g2290"
         transform="matrix(0.01802643,0,0,0.01802643,2.7347407,109.17568)"><path
           d="m 15578.6,10852.8 679.5,47.5 41.9,-599.1 -679.6,-47.5 -41.8,599.1"
           style="fill:#ffffff;fill-opacity:1;fill-rule:nonzero;stroke:none"
           id="path2292" /></g><g
         id="g2294"
         transform="matrix(0.01764703,0,0,0.01764703,2.7347407,109.17568)"><path
           d="m 16238,10997.5 c -1.1,16.8 11.5,31.3 28.3,32.5 16.8,1.2 31.3,-11.5 32.5,-28.3 1.2,-16.8 -11.5,-31.3 -28.2,-32.5 -16.9,-1.2 -31.4,11.5 -32.6,28.3"
           style="fill:#b0d4ff;fill-opacity:1;fill-rule:nonzero;stroke:none"
           id="path2296" /></g><path
         d="m 242.75423,264.92904 12.25157,0.85555 0.75289,-10.80024 -12.25002,-0.85555 -0.75444,10.80024"
         style="fill:#ffffff;fill-opacity:1;fill-rule:nonzero;stroke:none;stroke-width:0.0155556"
         id="path2298" /><path
         d="m 248.48024,263.36414 c -0.0202,0.29556 0.20222,0.55223 0.49933,0.57401 0.29556,0.0202 0.55223,-0.20378 0.574,-0.49934 0.0202,-0.29711 -0.20378,-0.55378 -0.49933,-0.574 -0.29711,-0.0202 -0.55378,0.20222 -0.574,0.49933"
         style="fill:#b0d4ff;fill-opacity:1;fill-rule:nonzero;stroke:none;stroke-width:0.0155556"
         id="path2300" /><path
         d="m 227.3122,257.88858 12.27958,0.126 0.11044,-10.82513 -12.27802,-0.126 -0.112,10.82513"
         style="fill:#ffffff;fill-opacity:1;fill-rule:nonzero;stroke:none;stroke-width:0.0155556"
         id="path2302" /><path
         d="m 232.93399,255.98613 c -0.002,0.29711 0.23645,0.53978 0.53356,0.54289 0.29555,0.003 0.53978,-0.23489 0.54289,-0.532 0.003,-0.29711 -0.23489,-0.53978 -0.532,-0.54289 -0.29711,-0.003 -0.54134,0.23489 -0.54445,0.532"
         style="fill:#b0d4ff;fill-opacity:1;fill-rule:nonzero;stroke:none;stroke-width:0.0155556"
         id="path2304" /><g
         id="g2306"
         transform="matrix(0.01912076,0,0,0.01912076,2.7347407,109.17568)"><path
           d="m 15667.8,9934.42 632.2,-112.99 -99.6,-557.36 -632.2,112.98 99.6,557.37"
           style="fill:#eef6ff;fill-opacity:1;fill-rule:nonzero;stroke:none"
           id="path2308" /></g><g
         id="g2310"
         transform="matrix(0.01876516,0,0,0.01876516,2.7347407,109.17568)"><path
           d="m 16248.5,9992.55 c 2.4,13.55 15.4,22.55 29,20.15 13.5,-2.4 22.5,-15.38 20.1,-28.92 -2.4,-13.54 -15.4,-22.56 -28.9,-20.14 -13.5,2.42 -22.6,15.36 -20.2,28.91"
           style="fill:#78acea;fill-opacity:1;fill-rule:nonzero;stroke:none"
           id="path2312" /></g><g
         id="g2314"
         transform="matrix(0.01687796,0,0,0.01687796,2.7347407,109.17568)"><path
           d="m 15507.7,11576.4 723.3,78.3 69,-637.7 -723.3,-78.3 -69,637.7"
           style="fill:#eef6ff;fill-opacity:1;fill-rule:nonzero;stroke:none"
           id="path2316" /></g><g
         id="g2318"
         transform="matrix(0.01647196,0,0,0.01647196,2.7347407,109.17568)"><path
           d="m 16241.9,11810.3 c -1.7,15.6 9.6,29.6 25.1,31.3 15.6,1.7 29.6,-9.6 31.3,-25.2 1.7,-15.6 -9.5,-29.6 -25.1,-31.2 -15.6,-1.7 -29.7,9.5 -31.3,25.1"
           style="fill:#78acea;fill-opacity:1;fill-rule:nonzero;stroke:none"
           id="path2320" /></g><path
         d="m 232.7971,277.73128 12.00891,2.56045 2.25867,-10.58713 -12.01046,-2.56201 -2.25712,10.58869"
         style="fill:#bae8e3;fill-opacity:1;fill-rule:nonzero;stroke:none;stroke-width:0.0155556"
         id="path2322" /><path
         d="m 238.85133,277.18839 c -0.21622,0.14155 -0.27844,0.43089 -0.13689,0.64711 0.14001,0.21622 0.42934,0.27845 0.64712,0.13845 0.21622,-0.14 0.27689,-0.43089 0.13689,-0.64712 -0.14,-0.21622 -0.42934,-0.27844 -0.64712,-0.13844"
         style="fill:#ffa412;fill-opacity:1;fill-rule:nonzero;stroke:none;stroke-width:0.0155556"
         id="path2324" /><g
         id="g2326"
         transform="matrix(0.01682632,0,0,0.01682632,2.7347407,109.17568)"><path
           d="m 16300,11879.9 h -694.6 v 466.7 l 192.3,176.7 h 502.3 v -643.4"
           style="fill:#ffffff;fill-opacity:1;fill-rule:nonzero;stroke:none"
           id="path2328" /></g><g
         id="g2330"
         transform="matrix(0.01630785,0,0,0.01630785,2.7347407,109.17568)"><path
           d="m 16097.8,12739.2 h 195.7 l 6.5,182.3 -202.2,-182.3"
           style="fill:#b0d4ff;fill-opacity:1;fill-rule:nonzero;stroke:none"
           id="path2332" /></g><g
         id="g2334"
         transform="matrix(0.01651754,0,0,0.01651754,2.7347407,109.17568)"><path
           d="m 16253.5,12696.8 c 0,12.8 10.4,23.2 23.2,23.2 12.9,0 23.3,-10.4 23.3,-23.2 0,-12.9 -10.4,-23.3 -23.3,-23.3 -12.8,0 -23.2,10.4 -23.2,23.3"
           style="fill:#b0d4ff;fill-opacity:1;fill-rule:nonzero;stroke:none"
           id="path2336" /></g><g
         id="g2338"
         transform="matrix(0.01892134,0,0,0.01892134,2.7347407,109.17568)"><path
           d="m 16300,7167.04 h -617.7 v 415.08 l 171,157.11 h 446.7 v -572.19"
           style="fill:#ffffff;fill-opacity:1;fill-rule:nonzero;stroke:none"
           id="path2340" /></g><g
         id="g2342"
         transform="matrix(0.01840287,0,0,0.01840287,2.7347407,109.17568)"><path
           d="m 16120.8,7795.78 h 173.5 l 5.7,161.54 -179.2,-161.54"
           style="fill:#b0d4ff;fill-opacity:1;fill-rule:nonzero;stroke:none"
           id="path2344" /></g><g
         id="g2346"
         transform="matrix(0.01861256,0,0,0.01861256,2.7347407,109.17568)"><path
           d="m 16258.7,7813.82 c 0,11.36 9.3,20.64 20.7,20.64 11.4,0 20.6,-9.28 20.6,-20.64 0,-11.37 -9.2,-20.65 -20.6,-20.65 -11.4,0 -20.7,9.28 -20.7,20.65"
           style="fill:#b0d4ff;fill-opacity:1;fill-rule:nonzero;stroke:none"
           id="path2348" /></g><g
         id="g2350"
         transform="matrix(0.01924847,0,0,0.01924847,2.7347407,109.17568)"><path
           d="m 16300,7854.94 h -607.2 v 407.97 l 168.1,154.47 h 439.1 v -562.44"
           style="fill:#ffffff;fill-opacity:1;fill-rule:nonzero;stroke:none"
           id="path2352" /></g><g
         id="g2354"
         transform="matrix(0.01873001,0,0,0.01873001,2.7347407,109.17568)"><path
           d="m 16123.8,8491.65 h 170.6 l 5.6,158.74 -176.2,-158.74"
           style="fill:#b0d4ff;fill-opacity:1;fill-rule:nonzero;stroke:none"
           id="path2356" /></g><g
         id="g2358"
         transform="matrix(0.0189397,0,0,0.0189397,2.7347407,109.17568)"><path
           d="m 16259.4,8501.7 c 0,11.21 9.1,20.29 20.3,20.29 11.2,0 20.3,-9.08 20.3,-20.29 0,-11.2 -9.1,-20.29 -20.3,-20.29 -11.2,0 -20.3,9.09 -20.3,20.29"
           style="fill:#b0d4ff;fill-opacity:1;fill-rule:nonzero;stroke:none"
           id="path2360" /></g><g
         id="g2362"
         transform="matrix(0.01830223,0,0,0.01830223,2.7347407,109.17568)"><path
           d="m 16300,8261.04 h -638.6 v 429.06 l 176.7,162.45 h 461.9 v -591.51"
           style="fill:#bae8e3;fill-opacity:1;fill-rule:nonzero;stroke:none"
           id="path2364" /></g><g
         id="g2366"
         transform="matrix(0.01778361,0,0,0.01778361,2.7347407,109.17568)"><path
           d="m 16114.6,8943.51 h 179.5 l 5.9,167.19 -185.4,-167.19"
           style="fill:#a1d6ce;fill-opacity:1;fill-rule:nonzero;stroke:none"
           id="path2368" /></g><g
         id="g2370"
         transform="matrix(0.01799345,0,0,0.01799345,2.7347407,109.17568)"><path
           d="m 16257.2,8948.77 c 0,11.8 9.6,21.36 21.4,21.36 11.8,0 21.4,-9.56 21.4,-21.36 0,-11.79 -9.6,-21.35 -21.4,-21.35 -11.8,0 -21.4,9.56 -21.4,21.35"
           style="fill:#f99746;fill-opacity:1;fill-rule:nonzero;stroke:none"
           id="path2372" /></g><g
         id="g2374"
         transform="matrix(0.01945085,0,0,0.01945085,2.7347407,109.17568)"><path
           d="m 16300,10416.2 h -600.9 v 403.8 l 166.3,152.8 h 434.6 v -556.6"
           style="fill:#bae8e3;fill-opacity:1;fill-rule:nonzero;stroke:none"
           id="path2376" /></g><g
         id="g2378"
         transform="matrix(0.01893223,0,0,0.01893223,2.7347407,109.17568)"><path
           d="m 16125.8,11116.3 h 168.6 l 5.6,157.1 -174.2,-157.1"
           style="fill:#a1d6ce;fill-opacity:1;fill-rule:nonzero;stroke:none"
           id="path2380" /></g><g
         id="g2382"
         transform="matrix(0.01914207,0,0,0.01914207,2.7347407,109.17568)"><path
           d="m 16259.9,11097.5 c 0,11.1 9,20.1 20,20.1 11.2,0 20.1,-9 20.1,-20.1 0,-11.1 -8.9,-20 -20.1,-20 -11,0 -20,8.9 -20,20"
           style="fill:#f99746;fill-opacity:1;fill-rule:nonzero;stroke:none"
           id="path2384" /></g><path
         d="M 204.20284,330.64203 H 181.9708 c -1.02045,0 -1.85578,0.83533 -1.85578,1.85578 v 21.45737 c 0,1.02044 0.83533,1.85578 1.85578,1.85578 h 22.23204 c 1.02044,0 1.85578,-0.83534 1.85578,-1.85578 v -21.45737 c 0,-1.02045 -0.83534,-1.85578 -1.85578,-1.85578"
         style="fill:#c0d8fb;fill-opacity:1;fill-rule:nonzero;stroke:none;stroke-width:0.0155556"
         id="path2386" /><path
         d="m 203.23994,331.73247 h -20.30625 c -0.93178,0 -1.694,0.76223 -1.694,1.69401 v 19.59847 c 0,0.93334 0.76222,1.69556 1.694,1.69556 h 20.30625 c 0.93178,0 1.69556,-0.76222 1.69556,-1.69556 v -19.59847 c 0,-0.93178 -0.76378,-1.69401 -1.69556,-1.69401"
         style="fill:#dfebfd;fill-opacity:1;fill-rule:nonzero;stroke:none;stroke-width:0.0155556"
         id="path2388" /><path
         d="m 192.55015,352.42295 c 0,0.29711 0.23956,0.53822 0.53667,0.53822 0.29711,0 0.53822,-0.24111 0.53822,-0.53822 0,-0.29555 -0.24111,-0.53667 -0.53822,-0.53667 -0.29711,0 -0.53667,0.24112 -0.53667,0.53667"
         style="fill:#b7d3f3;fill-opacity:1;fill-rule:nonzero;stroke:none;stroke-width:0.0155556"
         id="path2390" /><path
         d="m 196.88549,351.66384 c 0.14467,0.25978 0.47133,0.35311 0.73111,0.20844 0.25978,-0.14466 0.35311,-0.47133 0.20845,-0.73111 -0.14311,-0.25822 -0.47134,-0.35155 -0.73111,-0.20844 -0.25823,0.14466 -0.35156,0.47133 -0.20845,0.73111"
         style="fill:#b7d3f3;fill-opacity:1;fill-rule:nonzero;stroke:none;stroke-width:0.0155556"
         id="path2392" /><path
         d="m 200.60172,348.71295 c 0.24889,0.16022 0.58178,0.0887 0.742,-0.16178 0.16178,-0.24889 0.0887,-0.58178 -0.16022,-0.742 -0.24889,-0.16023 -0.58178,-0.0887 -0.742,0.16022 -0.16178,0.24889 -0.0902,0.58178 0.16022,0.74356"
         style="fill:#b7d3f3;fill-opacity:1;fill-rule:nonzero;stroke:none;stroke-width:0.0155556"
         id="path2394" /><path
         d="m 202.44194,344.14427 c 0.29556,0 0.53667,-0.24111 0.53667,-0.53822 0,-0.29711 -0.24111,-0.53667 -0.53667,-0.53667 -0.29711,0 -0.53822,0.23956 -0.53822,0.53667 0,0.29711 0.24111,0.53822 0.53822,0.53822"
         style="fill:#b7d3f3;fill-opacity:1;fill-rule:nonzero;stroke:none;stroke-width:0.0155556"
         id="path2396" /><path
         d="m 201.50239,338.84293 c 0.20844,-0.21 0.20844,-0.55067 0,-0.76067 -0.21,-0.21 -0.55067,-0.21 -0.76067,0 -0.21,0.21 -0.21,0.55067 0,0.76067 0.21,0.20844 0.55067,0.20844 0.76067,0"
         style="fill:#b7d3f3;fill-opacity:1;fill-rule:nonzero;stroke:none;stroke-width:0.0155556"
         id="path2398" /><path
         d="m 198.12683,335.45804 c 0.21,-0.20845 0.21,-0.54912 0,-0.75912 -0.21,-0.21 -0.55067,-0.21 -0.75912,0 -0.21,0.21 -0.21,0.55067 0,0.75912 0.20845,0.21 0.54912,0.21 0.75912,0"
         style="fill:#b7d3f3;fill-opacity:1;fill-rule:nonzero;stroke:none;stroke-width:0.0155556"
         id="path2400" /><path
         d="m 192.55015,333.71426 c 0,0.29711 0.23956,0.53822 0.53667,0.53822 0.29711,0 0.53822,-0.24111 0.53822,-0.53822 0,-0.29556 -0.24111,-0.53667 -0.53822,-0.53667 -0.29711,0 -0.53667,0.24111 -0.53667,0.53667"
         style="fill:#b7d3f3;fill-opacity:1;fill-rule:nonzero;stroke:none;stroke-width:0.0155556"
         id="path2402" /><path
         d="m 189.27103,351.66384 c -0.14466,0.25978 -0.47133,0.35311 -0.73111,0.20844 -0.25978,-0.14466 -0.35311,-0.47133 -0.20844,-0.73111 0.14466,-0.25822 0.47133,-0.35155 0.73111,-0.20844 0.25822,0.14466 0.35311,0.47133 0.20844,0.73111"
         style="fill:#b7d3f3;fill-opacity:1;fill-rule:nonzero;stroke:none;stroke-width:0.0155556"
         id="path2404" /><path
         d="m 185.55636,348.71295 c -0.25044,0.16022 -0.58333,0.0887 -0.74356,-0.16178 -0.16022,-0.24889 -0.0887,-0.58178 0.16023,-0.742 0.24889,-0.16023 0.58178,-0.0887 0.74355,0.16022 0.16023,0.24889 0.0887,0.58178 -0.16022,0.74356"
         style="fill:#b7d3f3;fill-opacity:1;fill-rule:nonzero;stroke:none;stroke-width:0.0155556"
         id="path2406" /><path
         d="m 183.71614,344.14427 c -0.29712,0 -0.53823,-0.24111 -0.53823,-0.53822 0,-0.29711 0.24111,-0.53667 0.53823,-0.53667 0.29555,0 0.53666,0.23956 0.53666,0.53667 0,0.29711 -0.24111,0.53822 -0.53666,0.53822"
         style="fill:#b7d3f3;fill-opacity:1;fill-rule:nonzero;stroke:none;stroke-width:0.0155556"
         id="path2408" /><path
         d="m 184.65569,338.84293 c -0.21,-0.21 -0.21,-0.55067 0,-0.76067 0.21,-0.21 0.54912,-0.21 0.75912,0 0.21,0.21 0.21,0.55067 0,0.76067 -0.21,0.20844 -0.54912,0.20844 -0.75912,0"
         style="fill:#b7d3f3;fill-opacity:1;fill-rule:nonzero;stroke:none;stroke-width:0.0155556"
         id="path2410" /><path
         d="m 188.0297,335.45804 c -0.21,-0.20845 -0.21,-0.54912 0,-0.75912 0.21,-0.21 0.55067,-0.21 0.76067,0 0.21,0.21 0.21,0.55067 0,0.75912 -0.21,0.21 -0.55067,0.21 -0.76067,0"
         style="fill:#b7d3f3;fill-opacity:1;fill-rule:nonzero;stroke:none;stroke-width:0.0155556"
         id="path2412" /><path
         d="m 192.94215,343.60605 c 0,0.29711 0.24111,0.53822 0.53667,0.53822 0.29711,0 0.53822,-0.24111 0.53822,-0.53822 0,-0.29711 -0.24111,-0.53667 -0.53822,-0.53667 -0.29556,0 -0.53667,0.23956 -0.53667,0.53667"
         style="fill:#b7d3f3;fill-opacity:1;fill-rule:nonzero;stroke:none;stroke-width:0.0155556"
         id="path2414" /><path
         d="m 193.55349,343.60605 h -0.14778 v 6.71379 h 0.14778 v -6.71379"
         style="fill:#b7d3f3;fill-opacity:1;fill-rule:nonzero;stroke:none;stroke-width:0.0155556"
         id="path2416" /><path
         d="m 193.54726,343.44271 -0.27222,0.34689 3.56067,2.79379 0.27067,-0.34689 -3.55912,-2.79379"
         style="fill:#b7d3f3;fill-opacity:1;fill-rule:nonzero;stroke:none;stroke-width:0.0155556"
         id="path2418" /><g
         id="g2420"
         transform="matrix(0.02090779,0,0,0.02090779,2.7347407,109.17568)"><path
           d="m 16182.1,2241.92 c -5.1,-69.05 -102.5,-69.79 -213.1,-56.99 -110.6,12.87 -81.2,-15.11 -236,-17.27 -154.8,-2.15 -208.1,49.03 -215.6,71.13 -6.7,19.64 67.8,36.16 147.6,55.58 10,2.38 20.2,4.91 30.2,7.44 89.9,22.91 149.5,90.17 226.4,148.95 72.9,55.73 167,257.2 167,257.2 l 211.4,9.6 c 0,0 -89.1,-180.65 -122.5,-258.54 -19.7,-45.76 -11.3,-102.08 -2.8,-145.23 4.6,-23.51 9.2,-47.55 7.4,-71.87"
           style="fill:#ffb27d;fill-opacity:1;fill-rule:nonzero;stroke:none"
           id="path2422" /></g><g
         id="g2424"
         transform="matrix(0.02075892,0,0,0.02075892,2.7347407,109.17568)"><path
           d="m 16083.6,2200.61 c -111.4,12.96 -81.8,-15.22 -237.7,-17.39 -155.9,-2.17 -209.6,49.38 -217.2,71.64 -6.7,19.78 68.4,36.41 148.7,55.97 l 1,-1.49 c 0,0 100.4,-53.88 228.8,-40.99 104.6,10.49 211.4,54.17 283.6,62.04 4.6,-23.68 9.2,-47.88 7.4,-72.39 -5.1,-69.53 -103.3,-70.28 -214.6,-57.39"
           style="fill:#233862;fill-opacity:1;fill-rule:nonzero;stroke:none"
           id="path2426" /></g><g
         id="g2428"
         transform="matrix(0.02263228,0,0,0.02263228,2.7347407,109.17568)"><path
           d="m 16298.3,2057.9 c -4.6,-63.86 -94.6,-64.61 -196.7,-52.86 -102.2,11.75 -75,-14.09 -218,-16.22 -143,-2.13 -192.4,45.09 -199.3,65.5 -6.2,18.15 62.7,33.48 136.4,51.48 9.2,2.27 18.5,4.61 27.8,6.95 83.1,21.23 138,83.43 209.1,137.8 67.3,51.55 0,356.44 0,356.44 l 214.9,20.9 c 0,0 -10.3,-256.71 -10.2,-373.42 0.1,-46.05 21.3,-90.32 29.2,-130.25 4.2,-21.72 8.5,-43.85 6.8,-66.32"
           style="fill:#ffb27d;fill-opacity:1;fill-rule:nonzero;stroke:none"
           id="path2430" /></g><g
         id="g2432"
         transform="matrix(0.02263228,0,0,0.02263228,2.7347407,109.17568)"><path
           d="m 16101.6,2005.04 c -102.2,11.75 -75,-14.09 -218,-16.22 -143,-2.13 -192.4,45.09 -199.3,65.5 -6.2,18.15 62.7,33.48 136.4,51.48 l 0.8,-1.31 c 0,0 92.2,-49.34 209.9,-37.38 96,9.69 193.9,49.9 260.1,57.11 4.2,-21.72 8.5,-43.85 6.8,-66.32 -4.6,-63.86 -94.6,-64.61 -196.7,-52.86"
           style="fill:#233862;fill-opacity:1;fill-rule:nonzero;stroke:none"
           id="path2434" /></g><g
         id="g2436"
         transform="matrix(0.02352128,0,0,0.02352128,2.7347407,109.17568)"><path
           d="m 15079,7050.8 c -35.6,146.4 16,214.58 62.5,250.88 22.1,53.88 47.3,92.72 73,107.36 47.1,26.71 103.3,29.62 142.8,27.3 -10.2,10.46 -30.1,14.28 -30.1,14.28 24.4,3.63 78.9,-20.6 78.9,-20.6 339.8,130.91 393.1,-369.33 386,-485.55 -7.1,-116.21 -6.2,-253.08 170.6,-344.62 337.3,-174.73 -112.1,-833.16 -112.1,-833.16 8.6,93.91 -424.7,589.52 -650.8,737.99 -55,81.02 -74.6,224.14 -76.1,235.42 9.6,-113.49 28.9,-177.15 46.3,-213 -103,94.84 -118.3,322.57 -91,523.7"
           style="fill:#a9453d;fill-opacity:1;fill-rule:nonzero;stroke:none"
           id="path2438" /></g><g
         id="g2440"
         transform="matrix(0.02241637,0,0,0.02241637,2.7347407,109.17568)"><path
           d="m 15963,6817.53 c -1.2,-0.55 114.6,-60.58 201.6,-36.77 81.9,22.27 135.4,128.44 134.3,128.72 -34.7,6.87 -44.7,54.52 -43.9,259.28 l -15.7,-3.09 -263.6,-52.19 c 0,0 6,-82.95 6.2,-161.09 0.1,-65.6 -3.8,-127.85 -18.9,-134.86"
           style="fill:#ffb27d;fill-opacity:1;fill-rule:nonzero;stroke:none"
           id="path2442" /></g><g
         id="g2444"
         transform="matrix(0.02233284,0,0,0.02233284,2.7347407,109.17568)"><path
           d="m 16035.5,7140.08 c 0,0 5.9,-83.26 6.2,-161.69 148,4.17 226.3,139.22 258.3,214.08 l -264.5,-52.39"
           style="fill:#ed975d;fill-opacity:1;fill-rule:nonzero;stroke:none"
           id="path2446" /></g><g
         id="g2448"
         transform="matrix(0.02258312,0,0,0.02258312,2.7347407,109.17568)"><path
           d="m 14793.2,2403.41 c -12.8,-40.16 16,-81.63 58.2,-83.63 l 102.2,-4.75 108.1,-3.3 c 27.1,-0.83 52.9,10.95 70,31.96 86.4,105.87 352.1,458.82 513.2,971.64 4.6,14.39 9.3,28.93 14.4,43.67 106.5,310.38 327.2,699.97 443.4,1052.57 18.6,56.21 35.2,109.04 50,159.12 4.9,15.98 9.5,31.75 13.9,47.25 85.7,297.77 110.5,493.26 133.4,702.11 l -839.7,-6.68 c 0,0 -176.8,-1374.05 -667.1,-2909.96"
           style="fill:#2a4e96;fill-opacity:1;fill-rule:nonzero;stroke:none"
           id="path2450" /></g><g
         id="g2452"
         transform="matrix(0.02308168,0,0,0.02308168,2.7347407,109.17568)"><path
           d="m 15241.4,5670.69 c 2.1,-390.95 -57.4,-558.69 -57.4,-558.69 0,0 351.8,-178.73 769.9,-47.17 4.9,1.55 346.1,79.45 346.1,79.45 -6.9,15.77 -69.2,279.28 -76,293.77 -88.3,189.58 -155.3,272.67 -165.7,330.97 -19.4,108.77 -19.9,221.39 -10.2,327.53 25.5,281.03 101.3,514.35 101.3,514.35 -113.9,25.95 -220.5,71.5 -339.1,115.92 -27.3,-33.97 -110.6,-69.49 -183,-67.87 -83.3,1.89 -110.3,37.54 -106,76.43 -88.7,-49.4 -159.5,-96.04 -159.5,-96.04 -75.4,-131.01 -228.4,-258.25 -239.4,-459.22 -2.8,-49.4 118.9,-498.51 119,-509.43"
           style="fill:#ffffff;fill-opacity:1;fill-rule:nonzero;stroke:none"
           id="path2454" /></g><g
         id="g2456"
         transform="matrix(0.02297404,0,0,0.02297404,2.7347407,109.17568)"><path
           d="m 16022.7,5653.46 c 36.1,-51.06 105.2,-361.44 277.3,-400.5 -88.7,221.27 -156,318.23 -166.5,386.28 -19.5,126.95 -20,258.31 -10.2,382.22 -57.6,100.95 -100.6,170.22 -100.6,170.22 -4.6,16.32 -91.6,285.39 -119.5,44.89 -27.8,-240.64 79.2,-525.97 119.5,-583.11"
           style="fill:#5f9aa8;fill-opacity:1;fill-rule:nonzero;stroke:none"
           id="path2458" /></g><g
         id="g2460"
         transform="matrix(0.0224453,0,0,0.0224453,2.7347407,109.17568)"><path
           d="m 15905.9,7030.39 c 0,0 348.5,-5.75 348.7,211.34 0.3,217.1 45.4,362.56 -177.1,375.41 -222.5,12.85 -265.8,-69.94 -283.6,-142.38 -17.6,-72.45 21.3,-437.28 112,-444.37"
           style="fill:#ffb27d;fill-opacity:1;fill-rule:nonzero;stroke:none"
           id="path2462" /></g><g
         id="g2464"
         transform="matrix(0.02254268,0,0,0.02254268,2.7347407,109.17568)"><path
           d="m 15850.1,7589.57 c 0,0 95,-253.59 240.8,-291.08 145.8,-37.5 209.1,1.57 209.1,1.57 0,0 -111.9,88.85 -135.1,243.94 0,0 -243.1,166.28 -314.8,45.57"
           style="fill:#a9453d;fill-opacity:1;fill-rule:nonzero;stroke:none"
           id="path2466" /></g><g
         id="g2468"
         transform="matrix(0.02195297,0,0,0.02195297,2.7347407,109.17568)"><path
           d="m 16300,7772.3 c 0,0 -72.8,-58.14 -90.6,-114.66 -17.7,-56.52 -25.7,-172.88 -59.7,-168.92 0,0 -73.5,177 9.2,277.12 87.5,106.18 141.1,6.46 141.1,6.46"
           style="fill:#a9453d;fill-opacity:1;fill-rule:nonzero;stroke:none"
           id="path2470" /></g><g
         id="g2472"
         transform="matrix(0.02142486,0,0,0.02142486,2.7347407,109.17568)"><path
           d="m 16088.9,5816.84 -172.4,-525.74 98.4,-39.42 285.1,464.45 -211.1,100.71"
           style="fill:#ffb27d;fill-opacity:1;fill-rule:nonzero;stroke:none"
           id="path2474" /></g><g
         id="g2476"
         transform="matrix(0.02175868,0,0,0.02175868,2.7347407,109.17568)"><path
           d="m 16300,7073.59 c 0,0 -200.2,-79.5 -258.2,-203.32 -57.9,-123.9 -145.7,-954.78 -180.6,-1040.14 -35,-85.29 -61.2,-152.84 -61.2,-152.84 0,0 100.9,-85.08 202.5,-91.3 101.5,-6.29 297.5,1487.6 297.5,1487.6"
           style="fill:#f99746;fill-opacity:1;fill-rule:nonzero;stroke:none"
           id="path2478" /></g><g
         id="g2480"
         transform="matrix(0.0219791,0,0,0.0219791,2.7347407,109.17568)"><path
           d="m 16300,7073.27 c 0,0 -205.9,-508.72 -212,-611.63 -6,-102.98 -24.2,-1683.51 -24.2,-1683.51 0,0 12.1,-72.69 -127.2,-42.4 -139.2,30.22 -175.6,60.51 -175.6,60.51 0,0 133.2,974.99 96.9,1314.15 -36.3,339.15 278.6,892.25 278.6,892.25 l 163.5,70.63"
           style="fill:#f99746;fill-opacity:1;fill-rule:nonzero;stroke:none"
           id="path2482" /></g><g
         id="g2484"
         transform="matrix(0.02239832,0,0,0.02239832,2.7347407,109.17568)"><path
           d="m 15077,2334.14 118.4,-3.61 c 21.1,-0.7 41.4,8.47 54.9,24.79 79.6,96.33 357.1,457.12 523.8,987.37 4.5,14.51 9.3,29.17 14.5,44.03 107.3,312.94 329.8,705.75 447,1061.26 18.7,56.67 35.4,109.94 50.4,160.43 4.9,16.11 9.6,32.01 14,47.64 l -124.7,94.59 c 0,0 -374.3,-606.09 -490.1,-1176.55 -100.7,-495.45 -503.8,-1091.68 -608.2,-1239.95"
           style="fill:#1e3d70;fill-opacity:1;fill-rule:nonzero;stroke:none"
           id="path2486" /></g><g
         id="g2488"
         transform="matrix(0.02310035,0,0,0.02310035,2.7347407,109.17568)"><path
           d="m 15671.2,3413.96 c -2,-254.47 10.1,-821.6 41.1,-1098.84 2.8,-25.38 24.2,-44.51 49.8,-44.51 h 85.6 c 36.1,0 63.1,0.27 81.1,0.54 15.5,0.2 28.8,11.38 31.7,26.6 85.2,433.46 146.2,793.53 190.8,1104.7 37.4,260.4 70.5,483.7 96,675.95 25.8,193.4 43.6,355.35 50,492.25 1,21.48 1.8,42.49 2.2,62.83 0.4,20.47 0.5,40.33 0.3,59.66 l -709.3,69.09 c 9,-471.24 81.8,-1191.97 80.7,-1348.27"
           style="fill:#2a4e96;fill-opacity:1;fill-rule:nonzero;stroke:none"
           id="path2490" /></g><g
         id="g2492"
         transform="matrix(0.02309646,0,0,0.02309646,2.7347407,109.17568)"><path
           d="m 15850.4,2270.99 c 32.4,0 57.5,0.2 75.3,0.47 18.8,0.27 34.9,13.74 38.6,32.26 84.6,431.04 145.2,789.41 189.7,1099.29 37.4,260.44 70.5,483.78 96,676.06 25.8,193.43 43.6,355.41 50,492.34 l -260.3,-153.16 c 0,0 166.1,-58.59 102.8,-502.37 -63.4,-443.7 -203.9,-1582.06 -292.1,-1644.89"
           style="fill:#1e3d70;fill-opacity:1;fill-rule:nonzero;stroke:none"
           id="path2494" /></g><g
         id="g2496"
         transform="matrix(0.02332093,0,0,0.02332093,2.7347407,109.17568)"><path
           d="m 15664.6,4531.68 c 0,0 49.5,-178.77 220.7,-155.95 171.2,22.81 414.7,125.53 414.7,125.53 0,0 -73.2,231.26 -164.2,534.95 -110.1,367.73 -246.4,841.78 -310.7,1140.81 -18,83.77 -30.4,153.75 -34.9,203.91 l -142.1,275.61 c 0,0 -211.8,-475.39 -223.2,-595.25 -11.4,-119.86 239.7,-1529.61 239.7,-1529.61"
           style="fill:#f99746;fill-opacity:1;fill-rule:nonzero;stroke:none"
           id="path2498" /></g><g
         id="g2500"
         transform="matrix(0.02313861,0,0,0.02313861,2.7347407,109.17568)"><path
           d="m 15960.3,6127.06 -188.9,581.92 c 0.5,-0.27 238.6,-70.86 358.4,-131.43 0,0 74.9,-96.54 121.2,-319.2 0,0 49,-534.73 -60.3,-730.29 0,0 -345.2,-69.05 -897.4,120.81 v 126.52 c 0,0 604,-31.6 727.7,-45.98 l -60.7,397.65"
           style="fill:#ffb27d;fill-opacity:1;fill-rule:nonzero;stroke:none"
           id="path2502" /></g><g
         id="g2504"
         transform="matrix(0.02308604,0,0,0.02308604,2.7347407,109.17568)"><path
           d="m 15831.6,5869.26 c 7.8,-196.01 53.9,-576.51 465.2,-780.2 1,-0.54 2.1,-1.14 3.2,-1.61 -111.2,371.47 -249,850.34 -313.9,1152.41 -75.6,-112.86 -158.6,-262.65 -154.5,-370.6"
           style="fill:#ed7d2b;fill-opacity:1;fill-rule:nonzero;stroke:none"
           id="path2506" /></g><g
         id="g2508"
         transform="matrix(0.02316319,0,0,0.02316319,2.7347407,109.17568)"><path
           d="m 15754.8,6701.9 c 0,0 349.8,-24.71 434.1,-212.42 84.3,-187.7 111.1,-812.12 3.8,-996 0,0 -147.6,-42.04 -408.8,6.79 -3.2,0.6 -6.4,1.2 -9.7,1.81 0,0 -83.3,204.02 -8.6,244.25 0,0 220.3,-11.49 197.3,61.31 -23,72.73 -208.1,894.26 -208.1,894.26"
           style="fill:#f99746;fill-opacity:1;fill-rule:nonzero;stroke:none"
           id="path2510" /></g><g
         id="g2512"
         transform="matrix(0.02198299,0,0,0.02198299,2.7347407,109.17568)"><path
           d="m 15676.1,5996.72 10.8,-34.89 605,188.16 c 0,0 8.1,9.2 4.1,21.44 -4.3,13.44 -14.9,13.51 -14.9,13.51 l -605,-188.22"
           style="fill:#a9453d;fill-opacity:1;fill-rule:nonzero;stroke:none"
           id="path2514" /></g><g
         id="g2516"
         transform="matrix(0.02115621,0,0,0.02115621,2.7347407,109.17568)"><path
           d="m 16243.3,6196.82 45.5,34.26 11.2,-36.25 -56.7,1.99"
           style="fill:#a9453d;fill-opacity:1;fill-rule:nonzero;stroke:none"
           id="path2518" /></g><g
         id="g2520"
         transform="matrix(0.02109197,0,0,0.02109197,2.7347407,109.17568)"><path
           d="m 16192.7,5389.23 c 0,0 -160,-88.43 -181.1,-155.76 -21,-67.34 -6.5,-208.35 18.8,-206.28 25.5,2.13 63.3,151.55 84.4,162.1 21,10.47 50.5,42.04 50.5,18.88 0,-23.08 -21.1,-65.2 -10.5,-71.54 10.5,-6.27 44.2,58.93 67.3,71.54 23.2,12.69 32.9,116.75 55.4,144.7 22.5,27.95 -84.8,36.36 -84.8,36.36"
           style="fill:#ffb27d;fill-opacity:1;fill-rule:nonzero;stroke:none"
           id="path2522" /></g><g
         id="g2524"
         transform="matrix(0.02188017,0,0,0.02188017,2.7347407,109.17568)"><path
           d="m 16173,6107.57 c 0,0 -138,84.96 -195.8,71.87 -57.8,-13.08 -205.3,-119.86 -134.4,-142.97 70.9,-23.1 128.4,1.14 155.6,-15.64 27.3,-16.78 47.4,-47.49 174.6,-47.06 127,0.42 0,133.8 0,133.8"
           style="fill:#ffb27d;fill-opacity:1;fill-rule:nonzero;stroke:none"
           id="path2526" /></g><path
         d="m 119.31759,262.77459 c -0.50571,0.97533 11.03482,4.48778 11.2176,-5.13957 0,0 21.61867,0.53201 11.2963,12.58136 -3.57358,4.172 -3.20585,7.62068 -3.09882,10.83135 0.10873,3.21223 -2.22585,12.54402 -10.2278,11.60446 0,0 -2.09549,0.85245 -4.71069,-0.50556 -5.94753,-3.08467 -19.27057,-32.92183 -4.47659,-29.37204"
         style="fill:#163560;fill-opacity:1;fill-rule:nonzero;stroke:none;stroke-width:0.0155556"
         id="path2528" /><path
         d="m 154.66142,252.01168 c 0,0 1.40716,2.14201 2.54132,2.18401 1.13447,0.042 3.23447,0.63 3.06647,0.21 -0.168,-0.42 -1.47,-0.462 -1.596,-0.71401 -0.126,-0.252 1.932,-0.63 2.52,-0.672 0.588,-0.042 1.97401,0 1.932,-0.294 -0.042,-0.294 -2.49822,-1.512 -4.23111,-1.344 -1.73336,0.168 -3.87552,-0.504 -3.87552,-0.504 l -0.35716,1.134"
         style="fill:#ffb27d;fill-opacity:1;fill-rule:nonzero;stroke:none;stroke-width:0.0155556"
         id="path2530" /><path
         d="m 134.31006,251.3179 c 0,0 0.76487,-1.51355 2.15227,-3.25422 1.67222,-2.09379 4.25056,-4.51423 7.48799,-4.99179 1.54607,-0.22711 3.05823,0.10422 4.44827,0.72178 0.004,0.002 0.005,0.002 0.005,0.002 3.93167,1.74534 6.88801,5.75868 6.88801,5.75868 0.693,1.89 -0.441,3.17178 -0.441,3.17178 0,0 -7.93895,-1.78578 -8.6951,-1.40778 -0.75616,0.378 -5.16663,13.08536 -6.21632,14.68136 -1.05094,1.596 -4.62981,2.42511 -4.62981,2.42511 l -0.99929,-17.10647"
         style="fill:#b0d0ff;fill-opacity:1;fill-rule:nonzero;stroke:none;stroke-width:0.0155556"
         id="path2532" /><path
         d="m 136.46233,248.06368 c 1.67222,-2.09379 4.25056,-4.51423 7.48799,-4.99179 1.54607,-0.22711 3.05823,0.10422 4.44827,0.72178 -0.15384,-0.0202 -4.08038,-0.50556 -5.64558,2.29445 -1.59647,2.85756 -3.32299,7.39356 -5.69459,5.88156 -1.02325,-0.65178 -0.97783,-2.27422 -0.59609,-3.906"
         style="fill:#98baf4;fill-opacity:1;fill-rule:nonzero;stroke:none;stroke-width:0.0155556"
         id="path2534" /><path
         d="m 104.69115,165.62221 c 0,0 -2.42248,-2.212 -1.94974,-3.78156 0.47273,-1.57111 2.65876,-2.618 2.95416,-4.53912 0.29556,-1.91956 1.47716,-2.96645 2.54069,-2.96645 1.06354,0 5.07034,0 5.07034,0 0,0 0.78292,1.35178 -1.10787,1.75778 -1.89062,0.40756 -2.60353,2.66312 -2.48531,4.75846 0.11822,2.09378 -0.17733,4.886 -0.17733,4.886 l -4.0177,0.93178 -0.82724,-1.04689"
         style="fill:#233862;fill-opacity:1;fill-rule:nonzero;stroke:none;stroke-width:0.0155556"
         id="path2536" /><path
         d="m 125.19496,164.68266 c 0,0 -0.87143,-9.36446 0.19211,-9.88869 l 13.61066,0.028 c 0,0 0,1.57112 -2.18618,1.91956 -2.18618,0.35 -6.0267,1.62867 -6.67661,4.48001 -0.64991,2.85134 -4.93998,3.46112 -4.93998,3.46112"
         style="fill:#233862;fill-opacity:1;fill-rule:nonzero;stroke:none;stroke-width:0.0155556"
         id="path2538" /><path
         d="m 115.49574,231.87343 c 2.80078,6.28134 4.5147,8.08423 4.18756,10.03335 -0.2436,1.45133 0.74138,27.05426 0.74138,27.05426 0.33227,0.10267 0.99851,0.196 1.36283,0.27689 1.14878,0.25511 2.09969,1.06089 2.49542,2.17 0.47662,1.33467 0.85571,3.30557 0.84685,5.77735 l 0.35886,-0.0716 6.03261,-1.19467 c 0,0 -0.13735,-1.89778 -0.1414,-3.68667 0,-0.0155 -1.5e-4,-0.0295 -1.5e-4,-0.0451 -0.007,-1.55245 1.01173,-2.92289 2.50414,-3.35378 0.76191,-0.22089 1.42489,-0.40912 1.42489,-0.40912 0,0 2.21511,-6.32334 2.63822,-12.8209 0.42311,-6.49757 -4.02811,-9.31935 0.0336,-22.30204 4.14681,-13.26113 -24.03212,-4.89845 -22.48481,-1.428"
         style="fill:#ffb27d;fill-opacity:1;fill-rule:nonzero;stroke:none;stroke-width:0.0155556"
         id="path2540" /><path
         d="m 131.52125,275.91905 c 0,0 -0.13735,-1.89778 -0.1414,-3.68667 -3.37571,0.0949 -5.16009,3.17489 -5.89121,4.88134 l 6.03261,-1.19467"
         style="fill:#e8945b;fill-opacity:1;fill-rule:nonzero;stroke:none;stroke-width:0.0155556"
         id="path2542" /><path
         d="m 132.64857,274.22661 c 0,0 -7.98702,-0.13223 -7.99246,4.84245 -0.005,4.97467 -1.04005,8.30823 4.05923,8.60379 5.09927,0.294 6.09219,-1.60378 6.49788,-3.26356 0.40569,-1.65978 -0.48721,-10.02091 -2.56465,-10.18268"
         style="fill:#ffb27d;fill-opacity:1;fill-rule:nonzero;stroke:none;stroke-width:0.0155556"
         id="path2544" /><path
         d="m 132.35301,287.79418 c 0,0 -2.1868,-5.83645 -5.54292,-6.69979 -3.35612,-0.86333 -4.81196,0.0358 -4.81196,0.0358 0,0 2.57445,2.04556 3.10863,5.61557 0,0 5.59658,3.82667 7.24625,1.04844"
         style="fill:#163560;fill-opacity:1;fill-rule:nonzero;stroke:none;stroke-width:0.0155556"
         id="path2546" /><path
         d="m 131.8109,287.32129 c 0,0 1.62167,-0.60666 2.28916,-1.78889 0.65271,-1.15733 1.20867,-2.68956 1.07971,-4.56867 0,0 1.64749,3.96823 -0.20409,6.21134 -1.96327,2.38 -3.16478,0.14622 -3.16478,0.14622"
         style="fill:#163560;fill-opacity:1;fill-rule:nonzero;stroke:none;stroke-width:0.0155556"
         id="path2548" /><path
         d="m 130.9107,277.31283 c 0,0 0.55113,-0.72644 1.65387,-0.67355 0.88807,0.042 1.2306,0.812 1.2306,0.812 0,0 -1.63147,0.392 -2.88447,-0.13845"
         style="fill:#ebf3fa;fill-opacity:1;fill-rule:nonzero;stroke:none;stroke-width:0.0155556"
         id="path2550" /><path
         d="m 114.72496,257.63502 c 0,0 -0.203,-2.85911 0,-6.29067 0.13471,-2.27423 2.43569,-5.32157 2.76205,-6.07446 0.81916,-1.89 1.74285,-2.198 1.74285,-2.198 l 7.14623,-1.75156 2.51285,-0.61444 7.9237,2.366 c 0,0 3.60905,10.07379 2.15989,15.74536 -1.44916,5.67001 -3.66318,9.60712 -3.66318,9.60712 0,0 -6.46583,-6.32956 -14.88498,0.53823 l -5.69941,-11.32758"
         style="fill:#b0d0ff;fill-opacity:1;fill-rule:nonzero;stroke:none;stroke-width:0.0155556"
         id="path2552" /><path
         d="m 116.81656,250.41568 c 0.13487,-2.27423 0.34409,-4.3929 0.67045,-5.14579 0.81916,-1.89 1.74285,-2.198 1.74285,-2.198 l 7.14623,-1.75156 3.10381,0.91311 c 0,0 -10.36095,1.56956 -9.21295,10.48447 l -3.45039,-2.30223"
         style="fill:#f2ccaa;fill-opacity:1;fill-rule:nonzero;stroke:none;stroke-width:0.0155556"
         id="path2554" /><path
         d="m 136.30864,241.54278 c 0,0 3.92421,-12.21424 4.17621,-16.37225 0.252,-4.15801 -7.50106,-59.07543 -7.81295,-60.99187 -0.29416,-1.80601 -2.53696,-2.95712 -2.53696,-2.95712 0,0 -1.03149,-0.60822 -2.50367,-0.19289 -2.04276,0.57711 -2.68832,1.26778 -2.68832,1.26778 0,0 -3.05433,39.16584 -1.16417,53.15653 1.89015,13.99069 1.9124,26.08982 1.9124,26.08982 h 10.61746"
         style="fill:#ed7d2b;fill-opacity:1;fill-rule:nonzero;stroke:none;stroke-width:0.0155556"
         id="path2556" /><path
         d="m 119.6833,241.90678 c 0,0 -5.98578,-8.03135 -6.54376,-13.46025 -0.55798,-5.42889 -0.87547,-24.49848 -2.06438,-29.79204 -1.18876,-5.29201 -5.55677,-15.4778 -5.55677,-31.98539 0,0 0.45391,-0.94578 1.85594,-1.44978 0.44815,-0.16177 1.04891,-0.31889 1.63209,-0.45111 1.15609,-0.266 2.3422,0.29867 2.87,1.36112 2.95292,5.94534 12.35969,25.12226 12.84191,29.10293 0.34145,2.81712 3.31147,21.46203 9.79022,32.40227 1.5554,2.62578 -0.95465,13.07136 -0.95465,13.07136 l -13.8706,1.20089"
         style="fill:#f99746;fill-opacity:1;fill-rule:nonzero;stroke:none;stroke-width:0.0155556"
         id="path2558" /><path
         d="m 131.08819,277.17906 c 0,0 0.13813,-0.58645 1.59678,-0.49623 0,0 1.22453,0.0762 1.18704,0.72023 0,0 -1.18735,0.45889 -2.78382,-0.224"
         style="fill:#ffffff;fill-opacity:1;fill-rule:nonzero;stroke:none;stroke-width:0.0155556"
         id="path2560" /><path
         d="m 136.93553,243.42811 c 0,0 -1.57531,-1.246 -4.70479,-1.30822 -3.738,-0.0762 -13.00057,0.952 -13.00057,0.952 0,0 -0.4116,-1.14956 -0.3948,-2.36289 0,0 11.31264,-2.85445 17.86729,-0.41689 0,0 0.84529,1.58978 0.23287,3.136"
         style="fill:#233862;fill-opacity:1;fill-rule:nonzero;stroke:none;stroke-width:0.0155556"
         id="path2562" /><path
         d="m 131.9873,240.82878 c 0,-0.75289 0.51147,-1.36578 1.14022,-1.36578 0.62892,0 1.14038,0.61289 1.14038,1.36578 0,0.75289 -0.51146,1.36578 -1.14038,1.36578 -0.62875,0 -1.14022,-0.61289 -1.14022,-1.36578 z m -0.56545,0 c 0,1.064 0.76503,1.93044 1.70567,1.93044 0.94065,0 1.70583,-0.86644 1.70583,-1.93044 0,-1.06401 -0.76518,-1.93045 -1.70583,-1.93045 -0.94064,0 -1.70567,0.86644 -1.70567,1.93045"
         style="fill:#ffffff;fill-opacity:1;fill-rule:nonzero;stroke:none;stroke-width:0.0155556"
         id="path2564" /><path
         d="m 107.05186,241.21922 11.59015,-10.09246 13.8146,15.86514 -11.59015,10.09246 -13.8146,-15.86514"
         style="fill:#b5453c;fill-opacity:1;fill-rule:nonzero;stroke:none;stroke-width:0.0155556"
         id="path2566" /><path
         d="m 121.84428,241.18189 c 0,0 4.24652,-0.49623 4.2333,-1.50423 -0.0132,-1.008 -1.05809,-3.07845 -1.58263,-3.17178 -0.52453,-0.0918 -3.45598,2.80156 -3.45598,2.80156 l 0.80531,1.87445"
         style="fill:#ffb27d;fill-opacity:1;fill-rule:nonzero;stroke:none;stroke-width:0.0155556"
         id="path2568" /><path
         d="m 120.42437,268.9626 c 0,0 -5.66954,-0.39823 -7.84281,-5.6809 -2.17343,-5.28423 -6.2969,-14.15402 -6.2969,-15.6458 0,-1.49334 2.30331,-6.09312 14.67373,-8.73757 0,0 1.27945,1.34556 1.20198,2.40956 0,0 -7.72194,6.6329 -7.70125,7.40912 0.0392,1.46534 1.26591,3.40201 8.04565,10.18268 1.84318,1.84489 -2.0804,10.06291 -2.0804,10.06291"
         style="fill:#b0d0ff;fill-opacity:1;fill-rule:nonzero;stroke:none;stroke-width:0.0155556"
         id="path2570" /><path
         d="m 183.06436,154.62442 h -0.0545 c -0.31578,0 -0.57089,0.25978 -0.56311,0.57711 l 0.85556,37.0845 2.52,0.294 -2.14978,-37.38161 c -0.0187,-0.322 -0.28467,-0.574 -0.60822,-0.574"
         style="fill:#b0d4ff;fill-opacity:1;fill-rule:nonzero;stroke:none;stroke-width:0.0155556"
         id="path2572" /><path
         d="m 168.37678,154.62442 h -0.0545 c -0.31577,0 -0.57089,0.25978 -0.56311,0.57711 l 0.85556,37.0845 2.52,0.294 -2.14978,-37.38161 c -0.0187,-0.322 -0.28467,-0.574 -0.60822,-0.574"
         style="fill:#95c0f4;fill-opacity:1;fill-rule:nonzero;stroke:none;stroke-width:0.0155556"
         id="path2574" /><path
         d="m 208.90529,154.62442 h 0.0544 c 0.31578,0 0.57089,0.25978 0.56467,0.57711 l -0.85711,37.0845 -2.52001,0.294 2.14978,-37.38161 c 0.0187,-0.322 0.28467,-0.574 0.60823,-0.574"
         style="fill:#b0d4ff;fill-opacity:1;fill-rule:nonzero;stroke:none;stroke-width:0.0155556"
         id="path2576" /><path
         d="m 166.70611,194.5867 v 25.41315 c 0,4.47068 3.62601,8.09668 8.09668,8.09668 h 18.30892 c 4.47223,0 8.09668,-3.626 8.09668,-8.09668 v -26.38382 l -34.50228,0.97067"
         style="fill:#b0d4ff;fill-opacity:1;fill-rule:nonzero;stroke:none;stroke-width:0.0155556"
         id="path2578" /><path
         d="m 204.48906,190.57492 h -35.35161 c -1.34245,0 -2.43134,1.08889 -2.43134,2.43134 v 1.58044 h 37.78295 v -4.01178"
         style="fill:#95c0f4;fill-opacity:1;fill-rule:nonzero;stroke:none;stroke-width:0.0155556"
         id="path2580" /><path
         d="m 208.7264,190.57492 h -26.74627 c -0.99244,0 -1.79667,0.80422 -1.79667,1.79667 v 0.41689 c 0,0.994 0.80423,1.79822 1.79667,1.79822 h 26.74627 c 0.99244,0 1.79667,-0.80422 1.79667,-1.79822 v -0.41689 c 0,-0.99245 -0.80423,-1.79667 -1.79667,-1.79667"
         style="fill:#b0d4ff;fill-opacity:1;fill-rule:nonzero;stroke:none;stroke-width:0.0155556"
         id="path2582" /><path
         d="m 207.68728,200.91938 c -2.62267,-4.56556 -5.922,-6.32801 -5.922,-6.32801 h -13.72469 c 0,0 21.64714,9.80935 19.64669,6.32801"
         style="fill:#233862;fill-opacity:1;fill-rule:nonzero;stroke:none;stroke-width:0.0155556"
         id="path2584" /><path
         d="m 197.14682,165.59732 c -0.35777,-0.40911 -0.40444,-0.868 -0.22711,-1.35644 0,-0.002 0.002,-0.005 0.003,-0.006 0.32823,-0.90534 1.40934,-1.9149 2.66623,-2.92445 0.16022,-0.12911 0.30333,-0.24734 0.42778,-0.35623 0.0327,-0.028 0.0653,-0.0575 0.0949,-0.0856 0.0264,-0.0233 0.0498,-0.0467 0.0747,-0.0669 1.17134,-1.07956 0.72956,-1.32689 2.83423,-3.51867 2.40023,-2.49667 4.05223,-2.54179 4.52201,-2.31467 0.39822,0.19444 -0.40911,1.51822 -1.30512,3.00689 -0.0436,0.0716 -0.0856,0.14467 -0.13066,0.21622 -0.11822,0.19911 -0.238,0.39978 -0.35622,0.59889 -1.04845,1.79045 -0.77934,2.63045 -0.53045,5.29668 0.20222,2.16689 3.37089,12.10224 3.37089,12.10224 l -4.59978,0.79333 c 0,0 -1.38445,-7.91312 -2.91045,-9.13112 -0.81511,-0.65023 -1.72978,-0.658 -2.51378,-1.13867 -0.0545,-0.0342 -0.10889,-0.0685 -0.16178,-0.10422 -0.44644,-0.29556 -0.90067,-0.60045 -1.25845,-1.01112"
         style="fill:#ffb27d;fill-opacity:1;fill-rule:nonzero;stroke:none;stroke-width:0.0155556"
         id="path2586" /><path
         d="m 197.14682,165.59732 c -0.35777,-0.40911 -0.40444,-0.868 -0.22711,-1.35644 0,-0.002 0.002,-0.005 0.003,-0.006 0.40134,-0.90378 1.45601,-1.90867 2.66934,-2.91512 0.15867,-0.13222 0.29867,-0.252 0.42467,-0.36556 0.0327,-0.028 0.0653,-0.0575 0.0949,-0.0856 0.0264,-0.0233 0.0498,-0.0467 0.0747,-0.0669 1.17134,-1.07956 0.72956,-1.32689 2.83423,-3.51867 2.40023,-2.49667 4.05223,-2.54179 4.52201,-2.31467 0.39822,0.19444 -0.40911,1.51822 -1.30512,3.00689 -0.46666,0.17111 -2.63667,1.05311 -4.27778,3.15156 -1.44511,1.84334 -2.408,4.21245 -3.39267,5.58601 -0.0545,-0.0342 -0.10889,-0.0685 -0.16178,-0.10422 -0.44644,-0.29556 -0.90067,-0.60045 -1.25845,-1.01112"
         style="fill:#233862;fill-opacity:1;fill-rule:nonzero;stroke:none;stroke-width:0.0155556"
         id="path2588" /><path
         d="m 234.22666,168.47044 c 0.28467,-1.42022 2.30845,-1.18378 4.56867,-0.63 2.26023,0.55222 1.72356,-0.10578 4.94046,0.25044 3.21689,0.35623 4.19222,1.55712 4.29023,2.03467 0.0871,0.42467 -1.50267,0.574 -3.20757,0.77 -0.21466,0.0249 -0.42933,0.0513 -0.64555,0.0778 -1.92423,0.24111 -3.33356,1.484 -5.08357,2.50445 -1.65666,0.966 -4.12845,4.90312 -4.12845,4.90312 l -4.41156,-0.34845 c 0,0 2.31467,-3.51711 3.21067,-5.04623 0.52734,-0.89911 0.49934,-2.08911 0.434,-3.00689 -0.0342,-0.49933 -0.0669,-1.00956 0.0327,-1.50889"
         style="fill:#ffb27d;fill-opacity:1;fill-rule:nonzero;stroke:none;stroke-width:0.0155556"
         id="path2590" /><path
         d="m 238.79533,167.84044 c 2.26023,0.55222 1.72356,-0.10578 4.94046,0.25044 3.21689,0.35623 4.19222,1.55712 4.29023,2.03467 0.0871,0.42467 -1.50267,0.574 -3.20757,0.77 l -0.0156,-0.0327 c 0,0 -1.92889,-1.36734 -4.60756,-1.43112 -2.18245,-0.0529 -4.49401,0.57245 -6.00135,0.54756 -0.0342,-0.49933 -0.0669,-1.00956 0.0327,-1.50889 0.28467,-1.42022 2.30845,-1.18378 4.56867,-0.63"
         style="fill:#233862;fill-opacity:1;fill-rule:nonzero;stroke:none;stroke-width:0.0155556"
         id="path2592" /><path
         d="m 217.31774,196.6836 -4.12378,-11.09891 -5.38534,-14.49313 c 0,0 -1.46067,-0.14001 -2.86067,0.26133 -1.288,0.37333 -2.76734,1.34711 -2.76734,1.34711 0,0 1.49645,15.56025 4.28556,24.49226 0.714,2.2929 1.51512,4.14712 2.40023,5.19246 4.32289,5.11 8.45134,-5.70112 8.45134,-5.70112"
         style="fill:#233862;fill-opacity:1;fill-rule:nonzero;stroke:none;stroke-width:0.0155556"
         id="path2594" /><path
         d="m 213.12396,214.30962 c -2.702,0.87112 -10.40824,-0.24733 -18.15025,-1.76244 l -1.62089,2.674 -16.72381,1.30511 c 0,0 -5.51756,-12.23757 -2.49667,-20.03403 0.44489,-1.14644 1.32689,-1.88067 2.83112,-1.90556 0,0 0.24267,0 0.24422,0 0,0 9.95246,0.006 13.18336,0.006 8.31756,0 17.60113,5.71667 18.80203,5.95623 1.96622,0.39355 2.75178,-3.5389 4.718,-7.66579 1.96623,-4.12845 18.47848,-18.28248 18.47848,-18.28248 0,0 2.53711,-0.0249 3.58556,0.36867 1.12778,0.42311 1.54,0.97222 1.54,0.97222 0,0 -18.29647,36.40162 -24.39115,38.36784"
         style="fill:#2b478b;fill-opacity:1;fill-rule:nonzero;stroke:none;stroke-width:0.0155556"
         id="path2596" /><path
         d="m 192.69482,263.91326 c -2.14201,1.12466 -5.40246,1.27711 -5.93135,1.34867 -6.33734,0.85089 -10.15157,-8.35646 -10.37557,-11.14713 -0.41378,-5.14268 -3.13445,-5.92668 -6.96268,-9.14668 -7.67823,-6.45868 -5.42734,-13.96269 -1.22889,-16.75025 2.52001,-1.67378 6.95957,0 6.95957,0 0.0622,-0.0436 12.14269,6.75267 18.09736,10.03179 8.92735,1.26934 4.90001,22.7967 -0.55844,25.6636"
         style="fill:#233862;fill-opacity:1;fill-rule:nonzero;stroke:none;stroke-width:0.0155556"
         id="path2598" /><path
         d="m 188.26303,241.04033 c 0.0265,-0.0171 -2.93067,-1.02511 -4.90623,-0.15089 -1.86045,0.82289 -3.26823,3.88112 -3.24178,3.88268 0.84622,0.0389 1.77489,0.77933 2.49045,5.63267 l 0.36089,-0.13067 6.05578,-2.17933 c 0,0 -0.43866,-1.94289 -0.72333,-3.79245 -0.238,-1.55401 -0.36711,-3.04267 -0.0358,-3.26201"
         style="fill:#ffb27d;fill-opacity:1;fill-rule:nonzero;stroke:none;stroke-width:0.0155556"
         id="path2600" /><path
         d="m 189.02214,248.09479 c 0,0 -0.43866,-1.94289 -0.72333,-3.79245 -3.47823,0.62533 -4.84401,4.09111 -5.33245,5.97178 l 6.05578,-2.17933"
         style="fill:#ed975d;fill-opacity:1;fill-rule:nonzero;stroke:none;stroke-width:0.0155556"
         id="path2602" /><path
         d="m 189.92437,246.1659 c 0,0 -8.28646,1.11377 -7.5149,6.26267 0.77155,5.1489 0.22244,8.7609 5.54556,8.26935 5.32312,-0.49311 6.05423,-2.61178 6.21446,-4.3929 0.16022,-1.78111 -2.07045,-10.29468 -4.24512,-10.13912"
         style="fill:#ffb27d;fill-opacity:1;fill-rule:nonzero;stroke:none;stroke-width:0.0155556"
         id="path2604" /><path
         d="m 193.86771,259.1268 c 0,0 -5.30446,-4.57022 -8.91179,-4.93889 -3.6089,-0.36867 -4.97468,0.79022 -4.97468,0.79022 0,0 2.12645,1.76556 3.40667,4.61534 0.37645,0.84 1.17445,1.41556 2.09223,1.49489 2.576,0.22245 7.4589,0.32356 8.38757,-1.96156"
         style="fill:#233862;fill-opacity:1;fill-rule:nonzero;stroke:none;stroke-width:0.0155556"
         id="path2606" /><path
         d="m 190.55281,259.53747 c 0,0 1.77334,-1.71578 2.33334,-2.98823 0.53822,-1.22889 0.7,-4.16578 0.27067,-5.33245 0,0 2.76578,5.37601 1.19933,7.98779 -1.65978,2.77045 -3.80334,0.33289 -3.80334,0.33289"
         style="fill:#233862;fill-opacity:1;fill-rule:nonzero;stroke:none;stroke-width:0.0155556"
         id="path2608" /><path
         d="m 195.23971,228.83387 c -0.25044,-16.77358 -0.0684,-13.26736 -1.90245,-14.86025 -0.44333,-0.38266 -1.68622,-0.61133 -3.32111,-0.71867 -5.14423,-0.34222 -14.18514,0.50556 -14.52892,1.45601 -1.18689,3.28845 -0.34844,4.31045 -1.33778,9.34579 -0.10422,0.53511 -0.23177,1.11533 -0.38111,1.74689 -0.826,3.45801 -1.62867,4.63401 1.29889,10.19046 2.65534,5.03223 5.41335,9.11713 5.66223,8.96935 7.00468,-4.15801 7.56935,-0.66267 7.56935,-0.66267 0,0 7.06379,-7.28468 6.9409,-15.46691"
         style="fill:#ffffff;fill-opacity:1;fill-rule:nonzero;stroke:none;stroke-width:0.0155556"
         id="path2610" /><path
         d="m 213.19396,185.58469 -5.38534,-14.49313 c 0,0 -1.46067,-0.14001 -2.86067,0.26133 -1.288,0.37333 -2.76734,1.34711 -2.76734,1.34711 0,0 1.49645,15.56025 4.28556,24.49226 l 6.72779,-11.60757"
         style="fill:#2b478b;fill-opacity:1;fill-rule:nonzero;stroke:none;stroke-width:0.0155556"
         id="path2612" /><path
         d="m 188.29881,244.30234 c 0,0 7.20846,-1.22267 8.05468,-4.32601 0.84622,-3.10334 5.82712,-21.34692 5.82712,-21.34692 0,0 -3.66334,-0.65956 -5.35734,1.03289 -1.69245,1.694 -5.88934,15.70647 -5.88934,15.70647 l -2.63512,8.93357"
         style="fill:#ffffff;fill-opacity:1;fill-rule:nonzero;stroke:none;stroke-width:0.0155556"
         id="path2614" /><path
         d="m 190.01615,213.25495 c -5.14423,-0.34222 -14.18514,0.50556 -14.52892,1.45601 -1.18689,3.28845 -0.34844,4.31045 -1.33778,9.34579 l 2.47956,6.98601 c 0,0 -0.40911,-7.77935 1.88378,-9.8249 2.2929,-2.04556 9.39246,-3.94957 10.5078,-5.65912 0.53822,-0.82134 0.89289,-1.64267 0.99556,-2.30379"
         style="fill:#ebf3ff;fill-opacity:1;fill-rule:nonzero;stroke:none;stroke-width:0.0155556"
         id="path2616" /><path
         d="m 184.12369,216.52629 c 0,0 5.07423,1.12934 5.89246,0.67978 0.81822,-0.45111 2.81867,-2.09067 3.07067,-2.66156 0.25044,-0.57089 -1.82312,0.434 -2.49823,0.61445 -0.43555,0.11666 -1.58667,-0.28156 -2.15445,-0.47134 -2.39556,-0.79955 -3.86245,-0.38889 -3.86245,-0.38889 l -0.448,2.22756"
         style="fill:#ffb27d;fill-opacity:1;fill-rule:nonzero;stroke:none;stroke-width:0.0155556"
         id="path2618" /><path
         d="m 180.7248,244.96812 c 0,0 -6.81335,-0.42001 -9.17157,-3.71001 -3.32112,-4.6309 -9.90735,-24.36471 -6.13201,-26.99826 4.25134,-2.96334 19.34647,-0.77467 19.34647,-0.77467 0,0 0.50245,2.34733 -0.196,3.48445 -0.7,1.13555 -12.05713,2.96956 -12.58135,3.49378 -0.52422,0.52422 6.55201,10.22313 6.55201,11.7958 0,1.57267 2.18245,12.70891 2.18245,12.70891"
         style="fill:#ffffff;fill-opacity:1;fill-rule:nonzero;stroke:none;stroke-width:0.0155556"
         id="path2620" /><path
         d="m 190.26192,215.79363 c 0,0 1.06245,-1.37201 1.4109,-1.53534 0.34844,-0.16333 0.574,-0.12289 0.574,-0.12289 l -0.71556,1.28956 -1.26934,0.36867"
         style="fill:#ffb27d;fill-opacity:1;fill-rule:nonzero;stroke:none;stroke-width:0.0155556"
         id="path2622" /><path
         d="m 190.01615,217.20607 3.09089,-1.50111 c 0,0 -0.13222,-0.21467 -0.51178,-0.19756 -0.38111,0.0171 -1.34089,0.36867 -1.34089,0.36867 l -1.23822,1.33"
         style="fill:#ffb27d;fill-opacity:1;fill-rule:nonzero;stroke:none;stroke-width:0.0155556"
         id="path2624" /><path
         d="m 191.67282,212.15673 h 24.45181 l 7.35624,18.29181 h -24.41449 l -7.39356,-18.29181"
         style="fill:#f99746;fill-opacity:1;fill-rule:nonzero;stroke:none;stroke-width:0.0155556"
         id="path2626" /><path
         d="m 216.41085,212.87073 h -32.28716 v -0.714 h 32.00094 l 0.28622,0.714"
         style="fill:#ed7d2b;fill-opacity:1;fill-rule:nonzero;stroke:none;stroke-width:0.0155556"
         id="path2628" /><path
         d="m 209.95218,221.30341 c 0.18511,0.64245 -0.18667,1.16356 -0.83067,1.16356 -0.64245,0 -1.31289,-0.52111 -1.498,-1.16356 -0.18356,-0.64244 0.18822,-1.16511 0.83067,-1.16511 0.644,0 1.31444,0.52267 1.498,1.16511"
         style="fill:#ffffff;fill-opacity:1;fill-rule:nonzero;stroke:none;stroke-width:0.0155556"
         id="path2630" /><g
         id="g2632"
         transform="matrix(0.01947699,0,0,0.01947699,2.7347407,109.17568)"><path
           d="m 16257.5,2298.65 h 3.7 c 21.5,0 38.8,18.76 38.3,41.53 l -58.1,2665.95 -171.1,21.16 145.9,-2687.27 c 1.3,-23.25 19.4,-41.37 41.3,-41.37"
           style="fill:#78acea;fill-opacity:1;fill-rule:nonzero;stroke:none"
           id="path2634" /></g><path
         d="m 184.24503,153.94619 h -0.0716 c -0.41844,0 -0.756,0.36556 -0.74667,0.80889 l 1.13245,51.92453 3.332,0.41222 -2.842,-52.33986 c -0.0249,-0.45266 -0.378,-0.80578 -0.80422,-0.80578"
         style="fill:#78acea;fill-opacity:1;fill-rule:nonzero;stroke:none;stroke-width:0.0155556"
         id="path2636" /><g
         id="g2638"
         transform="matrix(0.0198021,0,0,0.0198021,2.7347407,109.17568)"><path
           d="M 16193.2,4875.67 H 8991.72 c -59,0 -106.84,47.84 -106.84,106.84 v 102.75 c 0,58.99 47.84,106.83 106.84,106.83 h 7201.48 c 59,0 106.8,-47.84 106.8,-106.83 v -102.75 c 0,-59 -47.8,-106.84 -106.8,-106.84"
           style="fill:#78acea;fill-opacity:1;fill-rule:nonzero;stroke:none"
           id="path2640" /></g><path
         d="m 149.71117,300.9822 c -0.53869,13.33269 10.63582,19.25626 22.06295,19.25626 11.42557,0 23.8607,-2.96023 24.93715,-20.68893 0.69378,-11.40535 -5.3869,-18.42247 -22.89315,-18.42247 -5.9049,0 -10.49379,0.93178 -14.00935,2.59156 l -8.75095,-7.77623 4.30065,10.7489 c -3.80972,3.54201 -5.41474,8.53846 -5.6473,14.29091"
         style="fill:#dfedfb;fill-opacity:1;fill-rule:nonzero;stroke:none;stroke-width:0.0155556"
         id="path2642" /><g
         id="g2644"
         transform="matrix(0.02542186,0,0,0.02542186,2.7347407,109.17568)"><path
           d="m 15997.1,1763.36 c 0,0 12.6,98.52 41.9,157.08 29.3,58.62 215.7,21.35 215.7,21.35 0,0 37.3,-32 45.3,-181.12 l -302.9,2.69"
           style="fill:#233862;fill-opacity:1;fill-rule:nonzero;stroke:none"
           id="path2646" /></g><g
         id="g2648"
         transform="matrix(0.0240273,0,0,0.0240273,2.7347407,109.17568)"><path
           d="m 16253.7,1867.13 c 46.3,28.3 20,239.29 20,239.29 0,0 -216,172.73 -245.7,40.46 -29.6,-132.27 -205.1,-191.63 -305,-207.82 -68.9,-11.2 -90.2,-49.33 -96.8,-71.93 h 627.5"
           style="fill:#233862;fill-opacity:1;fill-rule:nonzero;stroke:none"
           id="path2650" /></g><g
         id="g2652"
         transform="matrix(0.02509208,0,0,0.02509208,2.7347407,109.17568)"><path
           d="m 15992.3,3257.42 c -8.4,-46.37 -13.7,-84.44 -15.2,-111.71 -19.2,-374.88 -315.6,-1232.13 -368.6,-1252.1 -82,-30.93 -211.1,34.84 -278.7,56.36 -28,8.92 -46.9,37.19 -40.7,65.83 146.8,674.75 200.7,1646.32 220.4,2221.56 9.9,289.7 59.6,489.82 59.6,489.82 0,0 722.8,192.86 727.1,-51.08 3.8,-215.87 -239.4,-1062.52 -303.9,-1418.68"
           style="fill:#213f7a;fill-opacity:1;fill-rule:nonzero;stroke:none"
           id="path2654" /></g><g
         id="g2656"
         transform="matrix(0.02509208,0,0,0.02509208,2.7347407,109.17568)"><path
           d="m 15992.3,3257.42 -482.8,979.94 c 9.9,289.7 59.6,489.82 59.6,489.82 0,0 722.8,192.86 727.1,-51.08 3.8,-215.87 -239.4,-1062.52 -303.9,-1418.68"
           style="fill:#233862;fill-opacity:1;fill-rule:nonzero;stroke:none"
           id="path2658" /></g><g
         id="g2660"
         transform="matrix(0.02569968,0,0,0.02569968,2.7347407,109.17568)"><path
           d="m 15457.1,4564.67 373.1,-2703.97 c 0,0 163.8,-39.53 291.2,-7.93 0,0 109.3,1438.15 100.2,1785.82 -9.1,347.68 78.4,930.32 -20,994.54 -98.3,64.28 -744.5,-68.46 -744.5,-68.46"
           style="fill:#213f7a;fill-opacity:1;fill-rule:nonzero;stroke:none"
           id="path2662" /></g><g
         id="g2664"
         transform="matrix(0.0256622,0,0,0.0256622,2.7347407,109.17568)"><path
           d="m 16298.2,4616.52 c 1.8,-24.49 -13.8,-46.73 -37.4,-53.58 -52.1,-15.1 -112.2,-25.65 -228.1,-49.65 -108.9,-22.61 -255.3,-42.61 -435.2,-43.77 -286.3,-1.81 -394.6,96.87 -394.6,96.87 -12.4,-0.24 6.5,59.65 23.5,344.43 5.7,96.5 11.2,218.76 15.2,373.34 3.7,139.05 6.1,304.29 6.3,500.27 0.3,235.8 365.3,489.44 372,489.44 l 0.1,-0.11 c 0,-33.95 53.5,-96.59 135.9,-102 97.8,-6.39 217.8,42.28 217.8,98.61 0,0.57 176.8,-282.88 239.6,-584.87 31.8,-151.97 18.9,-147.9 84.9,-1068.98"
           style="fill:#b0d0ff;fill-opacity:1;fill-rule:nonzero;stroke:none"
           id="path2666" /></g><g
         id="g2668"
         transform="matrix(0.02459151,0,0,0.02459151,2.7347407,109.17568)"><path
           d="m 16300,6547.01 c 0,0 -354.2,3 -439.4,-116.52 -85.2,-119.56 -272,-762.56 -174.6,-976.49 97.6,-214 280,88.49 381.3,219.56 101.3,131.07 232.7,873.45 232.7,873.45"
           style="fill:#b0d0ff;fill-opacity:1;fill-rule:nonzero;stroke:none"
           id="path2670" /></g><g
         id="g2672"
         transform="matrix(0.02515446,0,0,0.02515446,2.7347407,109.17568)"><path
           d="m 15931.6,6453.3 0.2,-35.79 c 0,0 -9.8,-111.92 128.1,-128.27 137.8,-16.38 240.1,20.9 236.3,107.28 -12.4,66.87 -23.9,135.54 -24.8,190.87 -0.3,20.57 1.1,42.38 4.9,67.02 l -267.1,5.34 -78.6,-12.85 1,-193.6"
           style="fill:#ffb27d;fill-opacity:1;fill-rule:nonzero;stroke:none"
           id="path2674" /></g><g
         id="g2676"
         transform="matrix(0.02511791,0,0,0.02511791,2.7347407,109.17568)"><path
           d="m 15953.8,6656.57 1,-193.88 c 28.4,-13.2 60.4,-21.27 96.4,-21.27 122.9,0 202.4,90.14 243.8,155.55 -0.3,20.6 1.2,42.45 5,67.12 l -267.5,5.35 -78.7,-12.87"
           style="fill:#e2915a;fill-opacity:1;fill-rule:nonzero;stroke:none"
           id="path2678" /></g><g
         id="g2680"
         transform="matrix(0.02532044,0,0,0.02532044,2.7347407,109.17568)"><path
           d="m 16190,6653.52 c -30.7,-165.68 -244.5,-160.23 -336.9,-149.82 -26,2.89 -42.4,6.21 -42.4,6.21 -29.3,7.83 -45.7,54 -53.2,114.48 -15.1,119.69 3.9,295.39 24.1,340.32 30.5,67.63 87.8,140.76 303.1,87.99 215.3,-52.81 144.8,-186.92 105.3,-399.18"
           style="fill:#ffb27d;fill-opacity:1;fill-rule:nonzero;stroke:none"
           id="path2682" /></g><g
         id="g2684"
         transform="matrix(0.02420666,0,0,0.02420666,2.7347407,109.17568)"><path
           d="m 16191.2,6164.29 c 0,0 -139.1,-307.3 -135.1,-399.45 0,0 68.9,2.38 135.1,-17.35 108.8,-32.39 0,416.8 0,416.8"
           style="fill:#98baf4;fill-opacity:1;fill-rule:nonzero;stroke:none"
           id="path2686" /></g><g
         id="g2688"
         transform="matrix(0.02539697,0,0,0.02539697,2.7347407,109.17568)"><path
           d="m 15668.2,7100.94 c 0,0 94.5,7.27 205.9,55.72 90.4,39.32 204.5,-3.98 241.6,-23.49 -1,5.96 -3.4,14.11 -9.1,22.28 0,0 16.7,-11.79 19.1,-28.27 1.8,-1.26 2.5,-2.14 2.1,-2.43 0,0 18.8,3.45 31,-2 0,0 -8.6,1.21 -11.6,-4.24 -0.3,-0.58 -0.8,-1.07 -1.3,-1.5 141.1,-68.17 154.1,-291.12 108.7,-342.71 -54.6,-62.07 -137.1,-202.51 -137.1,-202.51 0,0 -6.9,33.69 3,88.31 10,54.61 -37.2,54.61 -96.8,79.44 -59.6,24.83 -9.9,94.34 -62.1,136.55 -52.1,42.21 -243.3,17.38 -240.8,49.65 -71,25.85 -52.6,167.94 -52.6,175.2"
           style="fill:#233862;fill-opacity:1;fill-rule:nonzero;stroke:none"
           id="path2690" /></g><g
         id="g2692"
         transform="matrix(0.02521684,0,0,0.02521684,2.7347407,109.17568)"><path
           d="m 16300,5364.76 c -56.4,-226.4 -666.2,-343.42 -804.8,-367.23 5.9,98.21 11.5,222.63 15.6,379.94 l 789.2,-12.71"
           style="fill:#98baf4;fill-opacity:1;fill-rule:nonzero;stroke:none"
           id="path2694" /></g><g
         id="g2696"
         transform="matrix(0.02545577,0,0,0.02545577,2.7347407,109.17568)"><path
           d="m 16014.4,5241.5 c 5.8,0 134.3,19.18 157.3,30.67 23,11.55 128.3,161.14 59.4,199.52 -69,38.37 -254.1,-115.07 -254.1,-115.07 l 37.4,-115.12"
           style="fill:#ffb27d;fill-opacity:1;fill-rule:nonzero;stroke:none"
           id="path2698" /></g><g
         id="g2700"
         transform="matrix(0.02509939,0,0,0.02509939,2.7347407,109.17568)"><path
           d="m 15449,5270.87 c 0,0 504.1,-27.39 842.4,45.06 0,0 8.6,97.74 -97.7,141.18 0,0 -527.3,111.74 -654,80.63 -126.7,-31.11 -90.7,-266.87 -90.7,-266.87"
           style="fill:#b0d0ff;fill-opacity:1;fill-rule:nonzero;stroke:none"
           id="path2702" /></g><g
         id="g2704"
         transform="matrix(0.02595744,0,0,0.02595744,2.7347407,109.17568)"><path
           d="m 16057.8,5479.22 c -101.1,-122.01 -233.4,-221.61 -379.2,-244.93 v 0 c -1.2,1.86 -44.2,67.06 -36.1,162.83 3.7,44.34 18.4,95.22 53.1,149.46 10.6,16.66 20.2,36.13 28.6,57.76 79.7,203.16 67.8,594.71 67.8,594.71 0,0 338.1,-35.41 443.5,-185.92 64.5,-92.19 -17.8,-341.07 -177.7,-533.91"
           style="fill:#b0d0ff;fill-opacity:1;fill-rule:nonzero;stroke:none"
           id="path2706" /></g><g
         id="g2708"
         transform="matrix(0.02462728,0,0,0.02462728,2.7347407,109.17568)"><path
           d="m 16299.2,6686.75 c -26.7,2.97 -43.5,6.38 -43.5,6.38 -30.1,8.05 -47,55.52 -54.7,117.7 56.4,-13.91 82.3,-57.58 93.1,-76.18 4.9,-8.36 5.9,-27.12 5.1,-47.9"
           style="fill:#e2915a;fill-opacity:1;fill-rule:nonzero;stroke:none"
           id="path2710" /></g><g
         id="g2712"
         transform="matrix(0.02461235,0,0,0.02461235,2.7347407,109.17568)"><path
           d="m 16165.4,6594.39 c 0,0 -123.1,203.22 -27.3,212.06 95.7,8.84 134.2,-55.97 148.1,-79.78 13.8,-23.81 -3.6,-131.22 -3.6,-131.22 l -117.2,-1.06"
           style="fill:#ffb27d;fill-opacity:1;fill-rule:nonzero;stroke:none"
           id="path2714" /></g><g
         id="g2716"
         transform="matrix(0.02512444,0,0,0.02512444,2.7347407,109.17568)"><path
           d="m 16295.8,5582.73 c -3.7,-25.2 -11.3,-48.42 -20.6,-69.09 -29.4,-65.45 -76.8,-105.82 -76.8,-105.82 h -0.1 c -313.2,141.48 -376.6,627.07 -387.3,893.92 -4.3,107.25 0,179.17 0,179.17 141.4,46.8 181.1,-34.52 181.1,-34.52 0,0 166.9,-396.89 253.4,-656.25 33.1,-99.24 54.5,-178.37 50.3,-207.41"
           style="fill:#b0d0ff;fill-opacity:1;fill-rule:nonzero;stroke:none"
           id="path2718" /></g><g
         id="g2720"
         transform="matrix(0.02557182,0,0,0.02557182,2.7347407,109.17568)"><path
           d="M 16300,5561.85 C 16197.3,5438 16063.1,5336.9 15915.1,5313.23 h -0.1 c -307.8,139 -370.1,616.1 -380.6,878.28 0,0 145.7,-528.32 344,-713 35.8,-33.4 73.4,-55.54 112.2,-61.32 0,0 250,70.63 302.4,137.18 3.7,4.8 6,7.18 7,7.48"
           style="fill:#98baf4;fill-opacity:1;fill-rule:nonzero;stroke:none"
           id="path2722" /></g><g
         id="g2724"
         transform="matrix(0.0167756,0,0,0.0167756,2.7347407,109.17568)"><path
           d="m 16300,6128.82 h -1457.6 l -438.5,1090.38 h 1455.4 L 16300,6128.82"
           style="fill:#2b478b;fill-opacity:1;fill-rule:nonzero;stroke:none"
           id="path2726" /></g><g
         id="g2728"
         transform="matrix(0.01723869,0,0,0.01723869,2.7347407,109.17568)"><path
           d="M 14427.1,6005.49 H 16300 v -41.33 h -1856.3 l -16.6,41.33"
           style="fill:#2b478b;fill-opacity:1;fill-rule:nonzero;stroke:none"
           id="path2730" /></g><g
         id="g2732"
         transform="matrix(0.01580836,0,0,0.01580836,2.7347407,109.17568)"><path
           d="m 16141.1,7082.35 c -11.7,40.73 11.8,73.7 52.5,73.7 40.7,0 83.1,-32.97 94.8,-73.7 11.6,-40.64 -11.9,-73.61 -52.6,-73.61 -40.7,0 -83.1,32.97 -94.7,73.61"
           style="fill:#ffffff;fill-opacity:1;fill-rule:nonzero;stroke:none"
           id="path2734" /></g><g
         id="g2736"
         transform="matrix(0.02894473,0,0,0.02894473,2.7347407,109.17568)"><path
           d="m 16300,1562.77 v -5.37 c 0,-8.6 -8,-15.64 -17.6,-15.64 H 785.902 c -9.653,0 -17.601,7.04 -17.601,15.64 v 5.37 c 0,8.6 7.948,15.7 17.601,15.7 H 16282.4 c 9.6,0 17.6,-7.1 17.6,-15.7"
           style="fill:#2e3552;fill-opacity:1;fill-rule:nonzero;stroke:none"
           id="path2738" /></g></g></g></svg>
